<?xml version="1.0" encoding="UTF-8"?>
<svg xmlns="http://www.w3.org/2000/svg" viewBox="0 0 1200 630" role="img" aria-labelledby="title desc">
  <title id="title">PF</title>
  <desc id="desc">Fra ICD-10-typer til trekk</desc>
  <defs>
    <linearGradient id="bg" x1="0" y1="0" x2="1" y2="1">
      <stop offset="0%" stop-color="#082f3b"/>
      <stop offset="100%" stop-color="#0a1620"/>
    </linearGradient>
    <linearGradient id="panel" x1="0" y1="0" x2="1" y2="1">
      <stop offset="0%" stop-color="#ffffff" stop-opacity="0.14"/>
      <stop offset="100%" stop-color="#ffffff" stop-opacity="0.06"/>
    </linearGradient>
    <linearGradient id="accent" x1="0" y1="0" x2="1" y2="1">
      <stop offset="0%" stop-color="#7debd8"/>
      <stop offset="100%" stop-color="#58a9ff"/>
    </linearGradient>
  </defs>
  <rect width="1200" height="630" fill="url(#bg)"/>
  <circle cx="1040" cy="100" r="220" fill="#7debd8" opacity="0.14"/>
  <circle cx="980" cy="548" r="300" fill="#58a9ff" opacity="0.11"/>
  <path d="M0 470 C190 395, 340 560, 540 492 S920 390, 1200 500 L1200 630 L0 630 Z" fill="rgba(255,255,255,0.05)"/>
  <g transform="translate(68,70)">
    <rect width="500" height="490" rx="36" fill="url(#panel)" stroke="rgba(255,255,255,0.16)"/>
    <rect x="30" y="28" width="200" height="34" rx="17" fill="rgba(255,255,255,0.11)" stroke="rgba(255,255,255,0.16)"/>
    <text x="130" y="51" text-anchor="middle" fill="#f5fffe" font-size="14" font-weight="800" letter-spacing="1.3">PEDAGOGISK BRU</text>
    <text x="30" y="126" fill="#f7fffd" font-size="66" font-weight="900" letter-spacing="-1.8">PF</text>
    <text x="30" y="186" fill="#ecfffb" font-size="27" font-weight="700">Fra diagnose til mønster</text>
    <text x="30" y="226" fill="rgba(247,255,253,0.82)" font-size="18" font-weight="500">Viser hvilke kjente typer som ligner mest, og hvor de overlapper.</text>
    <g transform="translate(30,314)">
      <g transform="translate(0,0)"><rect x="0" y="0" rx="16" width="126" height="34" fill="rgba(255,255,255,0.08)" stroke="rgba(255,255,255,0.16)"/><text x="63" y="22" text-anchor="middle" fill="#f7fffd" font-size="14" font-weight="700">ICD-11</text></g>
      <g transform="translate(138,0)"><rect x="0" y="0" rx="16" width="126" height="34" fill="rgba(255,255,255,0.08)" stroke="rgba(255,255,255,0.16)"/><text x="63" y="22" text-anchor="middle" fill="#f7fffd" font-size="14" font-weight="700">Trekk</text></g>
      <g transform="translate(276,0)"><rect x="0" y="0" rx="16" width="126" height="34" fill="rgba(255,255,255,0.08)" stroke="rgba(255,255,255,0.16)"/><text x="63" y="22" text-anchor="middle" fill="#f7fffd" font-size="14" font-weight="700">Samsvar</text></g>
    </g>
  </g>
  <g transform="translate(636,82)">
    <rect width="498" height="466" rx="40" fill="rgba(255,255,255,0.07)" stroke="rgba(255,255,255,0.15)"/>
    <rect x="26" y="24" width="128" height="30" rx="15" fill="rgba(255,255,255,0.1)" stroke="rgba(255,255,255,0.16)"/>
    <text x="90" y="44" text-anchor="middle" fill="#f7fffd" font-size="13" font-weight="800">Shiny app</text>
    <g transform="translate(42,76)">
      <rect x="0" y="0" width="414" height="320" rx="28" fill="rgba(255,255,255,0.05)" stroke="rgba(255,255,255,0.14)"/>
      <g transform="translate(24,24)">
        <rect x="0" y="0" width="154" height="124" rx="20" fill="rgba(255,255,255,0.08)" stroke="rgba(255,255,255,0.15)"/>
        <text x="18" y="34" fill="#f7fffd" font-size="18" font-weight="800">Type A</text>
        <path d="M18 58 H124" stroke="#7debd8" stroke-width="8" stroke-linecap="round"/>
        <path d="M18 82 H92" stroke="#58a9ff" stroke-width="8" stroke-linecap="round"/>
        <path d="M18 106 H138" stroke="#7debd8" stroke-width="8" stroke-linecap="round"/>
      </g>
      <g transform="translate(232,24)">
        <rect x="0" y="0" width="154" height="124" rx="20" fill="rgba(255,255,255,0.08)" stroke="rgba(255,255,255,0.15)"/>
        <text x="18" y="34" fill="#f7fffd" font-size="18" font-weight="800">Type B</text>
        <path d="M18 58 H116" stroke="#7debd8" stroke-width="8" stroke-linecap="round"/>
        <path d="M18 82 H138" stroke="#58a9ff" stroke-width="8" stroke-linecap="round"/>
        <path d="M18 106 H74" stroke="#7debd8" stroke-width="8" stroke-linecap="round"/>
      </g>
      <g transform="translate(112,178)">
        <rect x="0" y="0" width="190" height="88" rx="22" fill="rgba(255,255,255,0.08)" stroke="rgba(255,255,255,0.15)"/>
        <circle cx="46" cy="44" r="28" fill="none" stroke="url(#accent)" stroke-width="8"/>
        <path d="M46 44 L46 26" stroke="#f7fffd" stroke-width="6" stroke-linecap="round"/>
        <path d="M46 44 L64 52" stroke="#f7fffd" stroke-width="6" stroke-linecap="round"/>
        <text x="104" y="40" fill="#f7fffd" font-size="18" font-weight="800">Trekkprofil</text>
        <text x="104" y="62" fill="rgba(247,255,253,0.76)" font-size="14">ikke etikett</text>
      </g>
    </g>
  </g>
</svg>